<?xml version="1.0" encoding="utf-8"?>
<!-- Generator: Adobe Illustrator 25.2.1, SVG Export Plug-In . SVG Version: 6.00 Build 0)  -->
<svg version="1.1" xmlns="http://www.w3.org/2000/svg" xmlns:xlink="http://www.w3.org/1999/xlink" x="0px" y="0px"
	 viewBox="0 0 773 250" style="enable-background:new 0 0 773 250;" xml:space="preserve">
<style type="text/css">
	.st0{display:none;}
	.st1{display:inline;fill:#841414;}
	.st2{display:inline;fill:#0436B2;}
	.st3{display:inline;fill:#55CAF5;}
	.st4{display:inline;fill:#A7489B;}
	.st5{fill:#03B585;}
	.st6{fill:none;stroke:#03B585;stroke-width:2;stroke-miterlimit:10;}
	.st7{fill:#3178C6;}
	.st8{fill-rule:evenodd;clip-rule:evenodd;fill:#FFFFFF;}
	.st9{fill:#F7DF1E;}
</style>
<g id="Padding" class="st0">
	<rect x="125.9" y="168" class="st1" width="32" height="82"/>
	<rect x="111" class="st1" width="32" height="82"/>
	<rect x="204.5" y="93" transform="matrix(6.123234e-17 -1 1 6.123234e-17 98.0281 342.9719)" class="st1" width="32" height="59"/>
	
		<rect x="261.5" y="93" transform="matrix(6.123234e-17 -1 1 6.123234e-17 155.0281 399.9719)" class="st1" width="32" height="59"/>
	<rect x="13.5" y="93" transform="matrix(6.123234e-17 -1 1 6.123234e-17 -92.9719 151.9719)" class="st1" width="32" height="59"/>
	
		<rect x="494.5" y="93" transform="matrix(6.123234e-17 -1 1 6.123234e-17 388.0281 632.9719)" class="st1" width="32" height="59"/>
	
		<rect x="727.5" y="93" transform="matrix(6.123234e-17 -1 1 6.123234e-17 621.0281 865.9719)" class="st1" width="32" height="59"/>
	<rect x="88" y="82" class="st2" width="29" height="29"/>
	<rect x="88" y="111" class="st3" width="29" height="29"/>
	<rect x="88" y="140" class="st4" width="29" height="29"/>
</g>
<g id="NEW_Logo_resize_1_pixel_down">
	<g>
		<path class="st5" d="M117,82c16.2,0,29,13.1,29,30v57h-29v-58H88V82H117z M88,111v58H59v-58H88z M191,82v87c-16.2,0-29-13.3-29-29
			V82H191z"/>
	</g>
	<line class="st6" x1="249" y1="38" x2="249" y2="212"/>
</g>
<g id="TS_Logo">
	<g>
		<path class="st7" d="M557,38h140c9.4,0,17,7.6,17,17v140c0,9.4-7.6,17-17,17H557c-9.4,0-17-7.6-17-17V55C540,45.6,547.6,38,557,38
			z"/>
		<path class="st7" d="M557,38h140c9.4,0,17,7.6,17,17v140c0,9.4-7.6,17-17,17H557c-9.4,0-17-7.6-17-17V55C540,45.6,547.6,38,557,38
			z"/>
		<path class="st8" d="M647.7,176.5v17c2.8,1.4,6,2.5,9.8,3.2c3.8,0.7,7.8,1.1,11.9,1.1c4.1,0,8-0.4,11.6-1.2
			c3.7-0.8,6.9-2.1,9.7-3.9c2.8-1.8,5-4.1,6.6-7c1.6-2.9,2.4-6.5,2.4-10.7c0-3.1-0.5-5.8-1.4-8.1s-2.3-4.4-4-6.2
			c-1.7-1.8-3.8-3.4-6.2-4.9c-2.4-1.4-5.2-2.8-8.2-4.1c-2.2-0.9-4.2-1.8-6-2.7c-1.8-0.9-3.3-1.8-4.5-2.7c-1.2-0.9-2.2-1.9-2.9-2.9
			c-0.7-1-1-2.2-1-3.4c0-1.2,0.3-2.2,0.9-3.2c0.6-0.9,1.5-1.7,2.6-2.4c1.1-0.7,2.4-1.2,4-1.6c1.6-0.4,3.4-0.6,5.3-0.6
			c1.4,0,2.9,0.1,4.5,0.3c1.6,0.2,3.2,0.5,4.8,1c1.6,0.4,3.1,1,4.7,1.7c1.5,0.7,2.9,1.5,4.2,2.3v-15.9c-2.6-1-5.4-1.7-8.5-2.2
			s-6.6-0.7-10.6-0.7c-4,0-7.9,0.4-11.5,1.3c-3.6,0.9-6.8,2.2-9.5,4.1c-2.7,1.8-4.9,4.2-6.5,7c-1.6,2.9-2.4,6.3-2.4,10.2
			c0,5.1,1.5,9.4,4.4,13c2.9,3.6,7.4,6.6,13.3,9.1c2.3,1,4.5,1.9,6.5,2.8s3.8,1.9,5.2,2.9c1.5,1,2.6,2.1,3.5,3.2
			c0.9,1.2,1.3,2.5,1.3,4c0,1.1-0.3,2.1-0.8,3.1s-1.3,1.8-2.4,2.4c-1.1,0.7-2.4,1.2-4,1.6c-1.6,0.4-3.5,0.6-5.7,0.6
			c-3.7,0-7.3-0.6-11-1.9C654.1,181,650.8,179,647.7,176.5L647.7,176.5z M619.1,134.5h21.8v-14h-60.8v14h21.7v62.2h17.3V134.5z"/>
	</g>
</g>
<g id="Layer_4">
	<g id="logo">
		<rect id="background" x="307" y="38" class="st9" width="174" height="174"/>
		<path id="j" d="M352.8,183.4l13.3-8.1c2.6,4.6,4.9,8.4,10.5,8.4c5.4,0,8.8-2.1,8.8-10.3v-55.6h16.4v55.8
			c0,16.9-9.9,24.6-24.4,24.6C364.2,198.4,356.6,191.6,352.8,183.4"/>
		<path id="s" d="M410.6,181.7l13.3-7.7c3.5,5.7,8.1,9.9,16.1,9.9c6.8,0,11.1-3.4,11.1-8.1c0-5.6-4.4-7.6-11.9-10.9l-4.1-1.8
			c-11.8-5-19.6-11.3-19.6-24.6c0-12.3,9.3-21.6,23.9-21.6c10.4,0,17.9,3.6,23.2,13.1l-12.7,8.2c-2.8-5-5.8-7-10.5-7
			c-4.8,0-7.8,3-7.8,7c0,4.9,3,6.9,10,9.9l4.1,1.8c13.9,6,21.7,12,21.7,25.7c0,14.7-11.6,22.8-27.1,22.8
			C425.2,198.4,415.4,191.1,410.6,181.7"/>
	</g>
</g>
</svg>
