<?xml version="1.0" encoding="utf-8" standalone="yes"?>
<!-- Generator: Adobe Illustrator 24.1.2, SVG Export Plug-In . SVG Version: 6.00 Build 0)  -->
<svg xmlns="http://www.w3.org/2000/svg" xmlns:xlink="http://www.w3.org/1999/xlink" version="1.1" x="0px" y="0px" viewBox="0 0 850 250" style="enable-background:new 0 0 540 250;zoom: 1;" xml:space="preserve">
        <style type="text/css">
        .st0{display:none;}
        .st1{display:inline;fill:#841414;}
        .st2{display:inline;fill:#0436B2;}
        .st3{display:inline;fill:#55CAF5;}
        .st4{display:inline;fill:#A7489B;}
        .st5{fill:#03B585;}
        .st6{fill:none;stroke:#03B585;stroke-width:2;stroke-miterlimit:10;}
        .st7{fill:#F7DF1E;}
</style>
        <g id="Padding" class="st0">
                <rect x="125.9" y="168" class="st1" width="32" height="82"></rect>
                <rect x="111" class="st1" width="32" height="82"></rect>
                <rect x="204.5" y="93" transform="matrix(6.123234e-17 -1 1 6.123234e-17 98.0281 342.9719)" class="st1" width="32" height="59"></rect>
                <rect x="261.5" y="93" transform="matrix(6.123234e-17 -1 1 6.123234e-17 155.0281 399.9719)" class="st1" width="32" height="59"></rect>
                <rect x="13.5" y="93" transform="matrix(6.123234e-17 -1 1 6.123234e-17 -92.9719 151.9719)" class="st1" width="32" height="59"></rect>
                <rect x="494.5" y="93" transform="matrix(6.123234e-17 -1 1 6.123234e-17 388.0281 632.9719)" class="st1" width="32" height="59"></rect>
                <rect x="88" y="82" class="st2" width="29" height="29"></rect>
                <rect x="88" y="111" class="st3" width="29" height="29"></rect>
                <rect x="88" y="140" class="st4" width="29" height="29"></rect>
        </g>
        <g id="NEW_Logo_resize_1_pixel_down">
                <g>
                        <path class="st5" d="M117,82c16.2,0,29,13.1,29,30v57h-29v-58H88V82H117z M88,111v58H59v-58H88z M191,82v87c-16.2,0-29-13.3-29-29 V82H191z"></path>
                </g>
                <line class="st6" x1="249" y1="38" x2="249" y2="212"></line>
                <line y1="38.000000" id="line2" x1="536.000000" class="st6" y2="212.000000" x2="536.000000"></line>
        </g>
        <g id="JS_Logo">
                <g id="logo">
                        <rect id="background" x="307" y="38" class="st7" width="174" height="174"></rect>
                        <path id="j" d="M352.8,183.4l13.3-8.1c2.6,4.6,4.9,8.4,10.5,8.4c5.4,0,8.8-2.1,8.8-10.3v-55.6h16.4v55.8 c0,16.9-9.9,24.6-24.4,24.6C364.2,198.4,356.6,191.6,352.8,183.4"></path>
                        <path id="s" d="M410.6,181.7l13.3-7.7c3.5,5.7,8.1,9.9,16.1,9.9c6.8,0,11.1-3.4,11.1-8.1c0-5.6-4.4-7.6-11.9-10.9l-4.1-1.8 c-11.8-5-19.6-11.3-19.6-24.6c0-12.3,9.3-21.6,23.9-21.6c10.4,0,17.9,3.6,23.2,13.1l-12.7,8.2c-2.8-5-5.8-7-10.5-7 c-4.8,0-7.8,3-7.8,7c0,4.9,3,6.9,10,9.9l4.1,1.8c13.9,6,21.7,12,21.7,25.7c0,14.7-11.6,22.8-27.1,22.8 C425.2,198.4,415.4,191.1,410.6,181.7"></path>
                </g>
        </g>
        <g id="TS_Logo" transform="translate(346 34) scale(.34 .34)">
                <svg height="512" style="zoom: 1;" id="svg1" width="512" fill="none" viewBox="0 0 512 512"></svg>
                <rect x="719.861572px" height="512" id="rect2" y="10.432775px" width="512" fill="#3178c6" rx="50"></rect>
                <path d="M1036.800537,417.856812 v50.061 c8.138,4.172 17.763,7.3 28.875,9.386 s22.823,3.129 35.135,3.129 c11.999,0 23.397,-1.147 34.196,-3.442 c10.799,-2.294 20.268,-6.075 28.406,-11.342 c8.138,-5.266 14.581,-12.15 19.328,-20.65 s7.121,-19.007 7.121,-31.522 c0,-9.074 -1.356,-17.026 -4.069,-23.857 s-6.625,-12.906 -11.738,-18.225 c-5.112,-5.319 -11.242,-10.091 -18.389,-14.315 s-15.207,-8.213 -24.18,-11.967 c-6.573,-2.712 -12.468,-5.345 -17.685,-7.9 c-5.217,-2.556 -9.651,-5.163 -13.303,-7.822 c-3.652,-2.66 -6.469,-5.476 -8.451,-8.448 c-1.982,-2.973 -2.974,-6.336 -2.974,-10.091 c0,-3.441 .887,-6.544 2.661,-9.308 s4.278,-5.136 7.512,-7.118 c3.235,-1.981 7.199,-3.52 11.894,-4.615 c4.696,-1.095 9.912,-1.642 15.651,-1.642 c4.173,0 8.581,.313 13.224,.938 c4.643,.626 9.312,1.591 14.008,2.894 c4.695,1.304 9.259,2.947 13.694,4.928 c4.434,1.982 8.529,4.276 12.285,6.884 v-46.776 c-7.616,-2.92 -15.937,-5.084 -24.962,-6.492 s-19.381,-2.112 -31.066,-2.112 c-11.895,0 -23.163,1.278 -33.805,3.833 s-20.006,6.544 -28.093,11.967 c-8.086,5.424 -14.476,12.333 -19.171,20.729 c-4.695,8.395 -7.043,18.433 -7.043,30.114 c0,14.914 4.304,27.638 12.912,38.172 c8.607,10.533 21.675,19.45 39.204,26.751 c6.886,2.816 13.303,5.579 19.25,8.291 s11.086,5.528 15.415,8.448 c4.33,2.92 7.747,6.101 10.252,9.543 c2.504,3.441 3.756,7.352 3.756,11.733 c0,3.233 -.783,6.231 -2.348,8.995 s-3.939,5.162 -7.121,7.196 s-7.147,3.624 -11.894,4.771 c-4.748,1.148 -10.303,1.721 -16.668,1.721 c-10.851,0 -21.597,-1.903 -32.24,-5.71 c-10.642,-3.806 -20.502,-9.516 -29.579,-17.13 m-84.159,-123.342 h64.22 v-41.082 h-179 v41.082 h63.906 v182.918 h50.874" id="path2" fill-rule="evenodd" fill="#fff" clip-rule="evenodd"></path>
        </g>
</svg>